G75*
%MOIN*%
%OFA0B0*%
%FSLAX25Y25*%
%IPPOS*%
%LPD*%
%AMOC8*
5,1,8,0,0,1.08239X$1,22.5*
%
%ADD10OC8,0.15800*%
%ADD11C,0.06800*%
%ADD12C,0.06000*%
%ADD13C,0.08200*%
%ADD14C,0.09400*%
%ADD15R,0.08800X0.08800*%
%ADD16C,0.08800*%
%ADD17C,0.08450*%
%ADD18C,0.04343*%
%ADD19C,0.06312*%
%ADD20C,0.04800*%
%ADD21C,0.04762*%
%ADD22R,0.04762X0.04762*%
D10*
X0051500Y0241500D03*
D11*
X0039500Y0221500D02*
X0033500Y0221500D01*
X0033500Y0211500D02*
X0039500Y0211500D01*
X0039500Y0201500D02*
X0033500Y0201500D01*
X0033500Y0191500D02*
X0039500Y0191500D01*
X0039500Y0181500D02*
X0033500Y0181500D01*
X0033500Y0171500D02*
X0039500Y0171500D01*
X0019500Y0171500D02*
X0013500Y0171500D01*
X0013500Y0181500D02*
X0019500Y0181500D01*
X0019500Y0191500D02*
X0013500Y0191500D01*
X0013500Y0201500D02*
X0019500Y0201500D01*
X0019500Y0211500D02*
X0013500Y0211500D01*
X0013500Y0221500D02*
X0019500Y0221500D01*
X0019500Y0231500D02*
X0013500Y0231500D01*
X0013500Y0241500D02*
X0019500Y0241500D01*
D12*
X0147000Y0121500D03*
X0166000Y0121500D03*
D13*
X0248700Y0112600D03*
X0248700Y0130400D03*
X0274300Y0130400D03*
X0274300Y0112600D03*
D14*
X0201500Y0236500D03*
X0191500Y0236500D03*
X0181500Y0236500D03*
X0171500Y0236500D03*
X0111500Y0236500D03*
X0101500Y0236500D03*
X0091500Y0236500D03*
D15*
X0371500Y0081500D03*
D16*
X0371500Y0061815D03*
D17*
X0056500Y0266500D03*
X0036500Y0286500D03*
X0016500Y0266500D03*
X0016500Y0306500D03*
X0056500Y0306500D03*
D18*
X0031500Y0140161D03*
X0031500Y0122839D03*
D19*
X0283862Y0246500D03*
X0378350Y0246500D03*
D20*
X0040250Y0060250D03*
X0109000Y0064000D03*
X0117750Y0072750D03*
X0109000Y0084000D03*
X0122750Y0094000D03*
X0126500Y0090250D03*
X0141500Y0071500D03*
X0147750Y0070250D03*
X0152750Y0065250D03*
X0156500Y0069000D03*
X0176500Y0069000D03*
X0186500Y0069000D03*
X0190250Y0072750D03*
X0200250Y0076500D03*
X0186500Y0090250D03*
X0181500Y0090250D03*
X0154000Y0094000D03*
X0181500Y0121500D03*
X0189000Y0124000D03*
X0184000Y0134000D03*
X0180250Y0137750D03*
X0197750Y0149000D03*
X0197750Y0154000D03*
X0197750Y0159000D03*
X0206500Y0149000D03*
X0210250Y0152750D03*
X0195250Y0174000D03*
X0195250Y0179000D03*
X0195250Y0194000D03*
X0191500Y0206500D03*
X0181500Y0195250D03*
X0176500Y0195250D03*
X0172750Y0210250D03*
X0162750Y0216500D03*
X0151500Y0216500D03*
X0152750Y0226500D03*
X0142750Y0230250D03*
X0137750Y0230250D03*
X0132750Y0230250D03*
X0159000Y0239000D03*
X0161500Y0206500D03*
X0156500Y0205250D03*
X0151500Y0200250D03*
X0146500Y0189000D03*
X0131500Y0191500D03*
X0125250Y0191500D03*
X0124000Y0186500D03*
X0121500Y0179000D03*
X0129000Y0164000D03*
X0137750Y0149000D03*
X0135250Y0141500D03*
X0122750Y0130250D03*
X0092750Y0116500D03*
X0077750Y0125250D03*
X0077750Y0131500D03*
X0066500Y0142750D03*
X0055250Y0120250D03*
X0100250Y0157750D03*
X0077750Y0196500D03*
X0054000Y0189000D03*
X0026500Y0201500D03*
X0150250Y0150250D03*
X0161500Y0150250D03*
X0164500Y0155000D03*
X0172750Y0156500D03*
X0182750Y0155250D03*
X0161000Y0164500D03*
X0168500Y0172700D03*
X0157750Y0137750D03*
X0209000Y0107750D03*
X0215250Y0117750D03*
X0220250Y0116500D03*
X0259000Y0081500D03*
X0262750Y0076500D03*
X0271500Y0074000D03*
X0280250Y0087750D03*
X0277750Y0056500D03*
X0236500Y0079000D03*
X0227750Y0070250D03*
X0137750Y0046500D03*
X0301500Y0175250D03*
X0329000Y0171500D03*
X0335250Y0074000D03*
D21*
X0201500Y0101500D03*
X0196500Y0106500D03*
X0201500Y0121500D03*
X0196500Y0126500D03*
X0181500Y0161500D03*
X0196500Y0165000D03*
X0175700Y0180200D03*
X0166500Y0182700D03*
X0201500Y0196500D03*
X0201500Y0211500D03*
X0201500Y0226500D03*
X0161500Y0226500D03*
D22*
X0171500Y0201500D03*
X0311500Y0041500D03*
M02*
