%
M48
M72
T01C0.02362
T02C0.02400
T03C0.02756
T04C0.03200
T05C0.03543
T06C0.04000
T07C0.05100
T08C0.05118
T09C0.05500
T10C0.05512
%
T01
X196500Y106500
X201500Y101500
X201500Y121500
X196500Y126500
X181500Y161500
X196500Y165000
X175700Y180200
X166500Y182700
X171500Y201500
X161500Y226500
X201500Y226500
X201500Y211500
X201500Y196500
X311500Y41500
T02
X40250Y60250
X109000Y64000
X117750Y72750
X109000Y84000
X122750Y94000
X126500Y90250
X141500Y71500
X147750Y70250
X152750Y65250
X156500Y69000
X176500Y69000
X186500Y69000
X190250Y72750
X200250Y76500
X186500Y90250
X181500Y90250
X154000Y94000
X181500Y121500
X189000Y124000
X184000Y134000
X180250Y137750
X197750Y149000
X197750Y154000
X197750Y159000
X206500Y149000
X210250Y152750
X195250Y174000
X195250Y179000
X195250Y194000
X191500Y206500
X181500Y195250
X176500Y195250
X172750Y210250
X162750Y216500
X151500Y216500
X152750Y226500
X142750Y230250
X137750Y230250
X132750Y230250
X159000Y239000
X161500Y206500
X156500Y205250
X151500Y200250
X146500Y189000
X131500Y191500
X125250Y191500
X124000Y186500
X121500Y179000
X129000Y164000
X137750Y149000
X135250Y141500
X122750Y130250
X92750Y116500
X77750Y125250
X77750Y131500
X66500Y142750
X55250Y120250
X100250Y157750
X77750Y196500
X54000Y189000
X26500Y201500
X150250Y150250
X161500Y150250
X164500Y155000
X172750Y156500
X182750Y155250
X161000Y164500
X168500Y172700
X157750Y137750
X209000Y107750
X215250Y117750
X220250Y116500
X259000Y81500
X262750Y76500
X271500Y74000
X280250Y87750
X277750Y56500
X236500Y79000
X227750Y70250
X137750Y46500
X301500Y175250
X329000Y171500
X335250Y74000
T03
X201500Y236500
X191500Y236500
X181500Y236500
X171500Y236500
X111500Y236500
X101500Y236500
X91500Y236500
T04
X147000Y121500
X166000Y121500
T05
X31500Y122839
X31500Y140161
T06
X36500Y171500
X36500Y181500
X36500Y191500
X36500Y201500
X36500Y211500
X36500Y221500
X16500Y221500
X16500Y211500
X16500Y201500
X16500Y191500
X16500Y181500
X16500Y171500
X16500Y231500
X16500Y241500
X248700Y130400
X248700Y112600
X274300Y112600
X274300Y130400
T07
X56500Y266500
X36500Y286500
X16500Y266500
X16500Y306500
X56500Y306500
T08
X371500Y81500
X371500Y61815
T09
X51500Y241500
T10
X283862Y246500
X378350Y246500
M30
